<svg xmlns="http://www.w3.org/2000/svg" width="364" height="348" fill="none" viewBox="0 0 364 348">
  <style>
    .path { fill: #000; }
    @media (prefers-color-scheme: dark) {
      .path { fill: #fff; }
    }
  </style>
<path fill="#FFD702" d="M106.722 76.5041c-.904 0-1.822-.2792-2.623-.8374-13.1287-9.3582-18.8337-26.2968-14.5216-43.1621C94.0377 15.0665 108.234 2.78482 126.638.463653 151.74-2.70959 167.285 11.0118 180.992 23.1318c7.942 7.0223 15.44 13.6479 24.094 16.5861 14.922 5.0831 28.896-.2057 42.41-5.3034 7.765-2.9382 15.1-5.7148 22.554-6.611 21.219-2.5709 35.149 5.5238 35.727 5.8764 2.119 1.2634 2.815 3.996 1.541 6.1115-1.275 2.1008-4.016 2.7912-6.15 1.5278-.222-.1175-12.106-6.8607-30.037-4.6864-6.372.7786-13.218 3.3642-20.449 6.0967-14.314 5.4063-30.526 11.5471-48.53 5.4063-10.358-3.5258-18.893-11.077-27.147-18.3637-13.47-11.8997-26.214-23.15294-47.256-20.47918-14.877 1.88048-25.902 11.37078-29.4881 25.38598-3.3934 13.2953.9484 26.5466 11.0541 33.7598 2.016 1.4397 2.475 4.2163 1.023 6.2143-.874 1.2047-2.253 1.8511-3.645 1.8511h.029Z"/><path class="path" fill="#fff" d="M195.021 275.658c-5.483-1.575-15.635-3.865-21.858-4.858Z"/><path class="path" fill="#fff" fill-rule="evenodd" d="M169.589 269.639c.437-2.455 2.697-4.075 5.048-3.619 6.035 1.169 15.742 3.829 21.064 5.687 2.269.791 3.493 3.352 2.734 5.72-.758 2.367-3.211 3.645-5.479 2.854-4.955-1.729-14.272-4.282-19.9-5.373-2.351-.455-3.903-2.815-3.467-5.269Z" clip-rule="evenodd"/><path class="path" fill="#fff" d="M156.162 267.494c-23.748-3.103-62.1325-2.476-87.4335 10.592Z"/><path class="path" fill="#fff" fill-rule="evenodd" d="M112.654 263.013c15.768-1.276 31.331-.715 43.278.701 2.413.286 4.133 2.429 3.84 4.787-.293 2.357-2.488 4.037-4.901 3.75-11.388-1.35-26.351-1.893-41.49-.667-15.1882 1.229-30.236 4.213-41.9873 9.721-2.1922 1.028-4.8222.125-5.8743-2.016-1.0521-2.141-.1278-4.71 2.0644-5.737 13.1096-6.145 29.3507-9.267 45.0702-10.539Z" clip-rule="evenodd"/><path class="path" fill="#fff" d="M270.555 176.182c-3.487-.729-6.78-1.427-8.792-2.214-1.282-.506-2.743-.402-3.935.297-1.192.698-2.012 1.902-2.191 3.284-2.712 20.163-6.199 44.754-9.567 67.443-.209 1.397.253 2.809 1.252 3.804.998 1.011 2.399 1.486 3.8 1.293 2.384-.312 6.93.386 11.326 1.055 4.575.698 9.389 1.441 13.756 1.441 6.333 0 11.684-1.56 13.889-7.058 2.728-6.79 6.93-43.179 6.93-51.054 0-12.749-15.29-15.959-26.468-18.291Zm11.163 66.017c-1.073 2.66-12.876.847-17.929.074-2.831-.431-5.573-.847-8.077-1.07 2.846-19.331 5.738-39.687 8.137-57.28 1.535.357 3.174.713 4.844 1.055 8.152 1.709 19.314 4.056 19.314 9.51 0 7.355-4.233 42.585-6.289 47.711Z"/><path class="path" fill="#fff" d="M279.244 153.984c-4.443-1.124-8.709-2.203-11.616-3.224.413-3.52.738-6.344.989-8.681-3.071.252-6.097.503-9.049.754-.295 2.692-.679 6.019-1.196 10.16-.221 1.805.665 3.564 2.259 4.452 3.395 1.893 9.152 3.357 16.429 5.205 14.347 3.638 36.031 9.14 36.459 19.152.694 16.12-6.922 69.818-10.583 79.209-4.369 11.24-28.636 7.616-43.132 5.457-5.712-.857-10.214-1.523-13.388-1.449-2.155.059-3.971 1.642-4.295 3.786-5.964 38.836-7.425 43.997-7.632 44.588-.944 2.278-5.181 10.219-19.735 16.505-18.23 7.867-45.021 10.263-79.606 7.143-29.271-2.647-52.6525-9.731-67.6053-20.498-13.2258-9.524-15.2628-18.338-15.44-19.314-.2214-3.357 2.4799-27.847 7.5134-65.796-2.9818.459-6.0225.696-9.078.71-3.5427 26.916-7.9562 62.202-7.2329 66.476.3542 2.174 2.9817 13.621 19.0564 25.186 16.488 11.875 40.7254 19.329 72.0184 22.153 10.274.932 19.588 1.346 28.031 1.346 62.306 0 77.126-22.701 80.359-30.45.443-1.065 1.594-3.845 7.602-42.666 2.288.251 5.107.666 8.178 1.124 18.229 2.721 45.788 6.818 52.755-11.047 5.049-12.955 11.75-69.7 11.189-82.848-.708-16.667-25.256-22.893-43.176-27.433h-.074ZM74.3672 126.502c1.9635-11.43 3.2874-17.839 3.9122-19.286 1.6511-3.515 8.5235-10.8543 23.7706-15.9935 18.922-6.3944 44.968-7.5019 75.329-3.1898 29.676 4.2088 53.105 11.8879 67.95 22.2403 4.329-.384 8.613-.753 12.838-1.123-1.979-1.875-4.165-3.691-6.546-5.405-16.184-11.7103-40.728-19.9654-72.963-24.5286-32.205-4.5632-58.951-3.367-79.4937 3.5738-11.097 3.751-24.5443 11.1496-29.0217 20.6748-1.1157 2.377-2.9602 11.725-5.0576 24.042 3.0197-.325 6.1286-.65 9.2822-.975v-.03Z"/><path fill="#FFD702" d="M362.194 128.382c2.734-2.657 1.803-20.149-1.272-22.644-2.453-1.992-355.33297 29.699-358.17091 34.644-2.7344688 4.783-4.81858 40.637 8.48421 65.405 9.785-15.735 20.5307-32.06 25.4676-37.979.7981-.945 2.2023-1.078 3.1483-.281.946.797 1.079 2.2.2808 3.144-5.2176 6.244-16.4216 23.47-26.2952 39.456 15.6234 22.85 52.3392 20.149 67.8888 6.377 21.1224-18.702 11.3074-59.044 12.7559-61.582 1.7146-2.997 17.0125-4.252 19.1415-1.417 2.128 2.834-5.676 29.728 14.884 53.788 6.031 7.071 14.027 11.853 22.792 14.554 5.469-11.144 36.583-58.792 46.146-69.745.813-.93 2.232-1.033 3.164-.221.931.812 1.034 2.229.221 3.159-9.593 10.982-39.199 56.696-45.096 67.988 20.116 4.473 43.13-1.55 55.709-16.443 19.141-22.644 8.499-61.583 10.627-64.402 2.129-2.819 137.167-10.908 140.124-13.787v-.014Zm-176.012 17.093c-4.936 5.181-20.885 27.691-22.836 31.529-.399.782-1.183 1.225-1.996 1.225-.34 0-.694-.074-1.019-.236-1.109-.561-1.538-1.904-.976-3.011 2.335-4.576 18.698-27.456 23.59-32.578.858-.9 2.277-.93 3.163-.073.902.856.932 2.273.074 3.158v-.014Z"/></svg>